<svg width="16" height="17" viewBox="0 0 16 17" fill="none" xmlns="http://www.w3.org/2000/svg">
<path d="M13.6855 12.5956C13.6855 12.5956 12.9181 13.3493 12.73 13.5703C12.4237 13.8972 12.0627 14.0516 11.5896 14.0516C11.5441 14.0516 11.4955 14.0516 11.45 14.0485C10.5492 13.991 9.71202 13.6399 9.08415 13.3402C7.36738 12.5108 5.85989 11.3333 4.60718 9.84103C3.57287 8.59695 2.88131 7.44669 2.4233 6.21169C2.14121 5.45797 2.03808 4.87073 2.08358 4.3168C2.11391 3.96264 2.25041 3.66902 2.50216 3.41779L3.53647 2.38559C3.6851 2.24634 3.84282 2.17067 3.99752 2.17067C4.18861 2.17067 4.3433 2.28569 4.44036 2.38256C4.44339 2.38559 4.44643 2.38861 4.44946 2.39164C4.63448 2.56418 4.81041 2.74277 4.99543 2.93347C5.08946 3.03033 5.18652 3.1272 5.28358 3.22709L6.11164 4.05345C6.43316 4.37431 6.43316 4.67095 6.11164 4.99181C6.02368 5.0796 5.93875 5.16738 5.85079 5.25213C5.596 5.51245 5.79615 5.31271 5.53226 5.54882C5.5262 5.55487 5.52013 5.5579 5.5171 5.56395C5.25624 5.82427 5.30478 6.07854 5.35937 6.25108C5.36241 6.26016 5.36544 6.26924 5.36847 6.27832C5.58383 6.79896 5.88715 7.28933 6.34819 7.87354L6.35122 7.87656C7.18838 8.90574 8.07103 9.70789 9.04468 10.3224C9.16904 10.4011 9.29644 10.4646 9.41776 10.5252C9.52696 10.5797 9.63008 10.6311 9.71805 10.6856C9.73018 10.6917 9.74231 10.7007 9.75445 10.7068C9.85757 10.7582 9.95464 10.7825 10.0547 10.7825C10.3065 10.7825 10.4642 10.6251 10.5158 10.5736L11.1103 9.98027C11.2134 9.87736 11.3772 9.75325 11.5683 9.75325C11.7564 9.75325 11.9111 9.8713 12.0051 9.97422C12.0081 9.97725 12.0081 9.97725 12.0112 9.98027L13.6824 11.6481C13.9949 11.9569 13.6855 12.5956 13.6855 12.5956Z" fill="#013E19" fill-opacity="0.75"/>
</svg>
